<svg width="20" height="10" viewBox="0 0 20 10" fill="none" xmlns="http://www.w3.org/2000/svg">
<path d="M3.804 0.504H5.34L6.312 3.324L7.296 0.504H8.82L7.356 4.38L8.436 7.092L10.848 0.48H12.648L9.24 9H7.812L6.312 5.424L4.824 9H3.396L0 0.48H1.776L4.2 7.092L5.256 4.38L3.804 0.504Z" fill="#2196F3"/>
<path d="M18.9568 2.712C18.9008 2.656 18.7968 2.58 18.6448 2.484C18.5008 2.388 18.3208 2.296 18.1048 2.208C17.8968 2.12 17.6688 2.044 17.4208 1.98C17.1728 1.908 16.9208 1.872 16.6648 1.872C16.2168 1.872 15.8768 1.956 15.6448 2.124C15.4208 2.292 15.3088 2.528 15.3088 2.832C15.3088 3.064 15.3808 3.248 15.5248 3.384C15.6688 3.52 15.8848 3.636 16.1728 3.732C16.4608 3.828 16.8208 3.932 17.2528 4.044C17.8128 4.18 18.2968 4.348 18.7048 4.548C19.1208 4.74 19.4368 4.996 19.6528 5.316C19.8768 5.628 19.9888 6.044 19.9888 6.564C19.9888 7.02 19.9048 7.412 19.7368 7.74C19.5688 8.06 19.3368 8.32 19.0408 8.52C18.7448 8.72 18.4088 8.868 18.0328 8.964C17.6568 9.052 17.2568 9.096 16.8328 9.096C16.4088 9.096 15.9848 9.052 15.5608 8.964C15.1368 8.876 14.7288 8.752 14.3368 8.592C13.9448 8.424 13.5848 8.224 13.2568 7.992L13.9888 6.564C14.0608 6.636 14.1888 6.732 14.3728 6.852C14.5568 6.964 14.7808 7.08 15.0448 7.2C15.3088 7.312 15.5968 7.408 15.9088 7.488C16.2208 7.568 16.5368 7.608 16.8568 7.608C17.3048 7.608 17.6448 7.532 17.8768 7.38C18.1088 7.228 18.2248 7.012 18.2248 6.732C18.2248 6.476 18.1328 6.276 17.9488 6.132C17.7648 5.988 17.5088 5.864 17.1808 5.76C16.8528 5.648 16.4648 5.528 16.0168 5.4C15.4808 5.248 15.0328 5.08 14.6728 4.896C14.3128 4.704 14.0448 4.464 13.8688 4.176C13.6928 3.888 13.6048 3.528 13.6048 3.096C13.6048 2.512 13.7408 2.024 14.0128 1.632C14.2928 1.232 14.6688 0.932 15.1408 0.732C15.6128 0.524 16.1368 0.42 16.7128 0.42C17.1128 0.42 17.4888 0.464 17.8408 0.551999C18.2008 0.64 18.5368 0.756 18.8488 0.9C19.1608 1.044 19.4408 1.2 19.6888 1.368L18.9568 2.712Z" fill="black"/>
</svg>
